<svg xmlns="http://www.w3.org/2000/svg" width="200" height="200" id="business"><path fill="#5E889E" d="M155.813 112.706c-.422-1.85-1.445-3.597-3.061-5.008-1.624-1.401-3.607-2.246-5.663-2.557l-33.054-6.396 9.563 6.347-15.097 47.324L100 117.264l-8.505 35.153-15.09-47.324 9.559-6.347-33.054 6.396c-2.056.311-4.038 1.155-5.664 2.557-1.616 1.411-2.64 3.158-3.06 5.008l-9.8 43.046 18.487 6.415c6.137 6.38 23.317 11.073 43.922 11.52H103.203c20.605-.446 37.783-5.14 43.922-11.52l18.488-6.415-9.8-43.047z"></path><path fill="#5E889E" d="m100 103.551-7.619 2.728L100 117.264l7.621-10.985zM128.289 61.162c0-19.537-8.04-34.848-28.289-34.848-20.251 0-28.287 15.312-28.287 34.848-2.118 1.105-3.509 3.698-1.429 9.255 1.049 2.79 2.898 5.128 4.467 6.352 5.771 14.368 17.12 25.46 25.249 25.46 8.129 0 19.479-11.092 25.247-25.46 1.571-1.224 3.417-3.563 4.469-6.352 2.08-5.558.69-8.15-1.427-9.255zm-96.333 84.773c-9.436-1.115-16.874-3.665-19.969-6.881L0 134.894l6.354-27.909c.273-1.199.938-2.333 1.985-3.246a7.26 7.26 0 0 1 3.672-1.658l23.215-5.317c-3.493-2.987-6.884-7.671-9.053-13.08-1.018-.792-2.217-2.308-2.898-4.118-1.35-3.601-.448-5.282.926-6 0-12.666 5.208-22.593 18.339-22.593h.003c13.128 0 18.339 9.927 18.339 22.593 1.374.718 2.276 2.399.928 6-.682 1.81-1.881 3.326-2.899 4.118-2.169 5.408-5.561 10.092-9.053 13.08l10.265 2.352-7.991 1.545c-2.95.46-5.667 1.705-7.875 3.612-2.295 2.005-3.855 4.571-4.506 7.423l-7.795 34.239zm161.69-38.951c-.275-1.199-.938-2.333-1.985-3.246-1.052-.908-2.337-1.458-3.672-1.658l-23.214-5.317c3.493-2.987 6.883-7.671 9.055-13.08 1.019-.792 2.215-2.308 2.896-4.118 1.35-3.601.448-5.282-.925-6 0-12.666-5.214-22.593-18.343-22.593-13.13 0-18.341 9.927-18.341 22.593-1.372.718-2.275 2.399-.925 6 .679 1.81 1.878 3.326 2.896 4.118 2.171 5.408 5.562 10.092 9.055 13.08l-10.267 2.352 7.991 1.545c2.948.46 5.667 1.705 7.856 3.594 2.314 2.022 3.871 4.589 4.522 7.437l7.796 34.244c9.436-1.115 16.874-3.665 19.97-6.881l11.986-4.16-6.351-27.91z"></path></svg>