<svg xmlns="http://www.w3.org/2000/svg" width="64" height="64" enable-background="new 0 0 64 64" viewBox="0 0 64 64" id="business-presentation"><path fill="#2B2F64" d="M60.558,41.261h-0.504V7.088h0.504c1.9,0,3.442-1.542,3.442-3.442c0-1.91-1.542-3.452-3.442-3.452H3.452
		C1.551,0.193,0,1.735,0,3.646c0,1.901,1.551,3.442,3.452,3.442h0.495v34.173H3.452C1.551,41.261,0,42.813,0,44.713
		s1.551,3.442,3.452,3.442h17.367l-1.872,5.227c-0.01,0.01-0.01,0.01-0.01,0.02l-3.277,9.105c-0.175,0.504,0.087,1.057,0.591,1.241
		c0.495,0.184,1.057-0.078,1.241-0.582l3.025-8.427h22.972l3.025,8.427c0.146,0.397,0.514,0.641,0.912,0.641
		c0.107,0,0.223-0.02,0.33-0.059c0.504-0.185,0.766-0.737,0.582-1.241l-5.159-14.352h17.377c1.9,0,3.442-1.542,3.442-3.442
		S62.458,41.261,60.558,41.261z M3.452,5.148c-0.834,0-1.513-0.679-1.513-1.503c0-0.834,0.679-1.513,1.513-1.513h57.105
		c0.824,0,1.503,0.679,1.503,1.513c0,0.824-0.679,1.503-1.503,1.503H3.452z M58.114,7.088v34.173H5.886V7.088H58.114z M21.217,52.8
		l1.668-4.645h18.24l1.668,4.645H21.217z M60.558,46.216H3.452c-0.834,0-1.513-0.669-1.513-1.503S2.618,43.2,3.452,43.2h57.105
		c0.824,0,1.503,0.679,1.503,1.513S61.382,46.216,60.558,46.216z"></path><path fill="#F26E62" d="M62.061 44.713c0 .834-.679 1.503-1.503 1.503H3.452c-.834 0-1.513-.669-1.513-1.503S2.618 43.2 3.452 43.2h57.105C61.382 43.2 62.061 43.879 62.061 44.713zM62.061 3.646c0 .824-.679 1.503-1.503 1.503H3.452c-.834 0-1.513-.679-1.513-1.503 0-.834.679-1.513 1.513-1.513h57.105C61.382 2.133 62.061 2.812 62.061 3.646z"></path><path fill="#EDEDED" d="M5.886,7.088v34.173h52.228V7.088H5.886z M11.171,36.422c-1.59,0-2.89-1.299-2.89-2.899s1.299-2.9,2.89-2.9
		c1.6,0,2.899,1.299,2.899,2.9S12.771,36.422,11.171,36.422z M11.171,27.073c-1.59,0-2.89-1.299-2.89-2.899
		c0-1.591,1.299-2.899,2.89-2.899c1.6,0,2.899,1.309,2.899,2.899C14.07,25.774,12.771,27.073,11.171,27.073z M11.171,17.726
		c-1.59,0-2.89-1.299-2.89-2.89c0-1.6,1.299-2.899,2.89-2.899c1.6,0,2.899,1.299,2.899,2.899
		C14.07,16.426,12.771,17.726,11.171,17.726z M27.5,34.492H17.435c-0.533,0-0.97-0.437-0.97-0.97c0-0.534,0.437-0.97,0.97-0.97H27.5
		c0.533,0,0.97,0.437,0.97,0.97C28.47,34.056,28.034,34.492,27.5,34.492z M27.5,25.144H17.435c-0.533,0-0.97-0.436-0.97-0.969
		c0-0.534,0.437-0.97,0.97-0.97H27.5c0.533,0,0.97,0.436,0.97,0.97C28.47,24.708,28.034,25.144,27.5,25.144z M27.5,15.806H17.435
		c-0.533,0-0.97-0.437-0.97-0.97c0-0.543,0.437-0.97,0.97-0.97H27.5c0.533,0,0.97,0.427,0.97,0.97
		C28.47,15.369,28.034,15.806,27.5,15.806z M51.626,29.469c-1.687,3.85-5.498,6.342-9.716,6.342
		c-5.857,0-10.627-4.771-10.627-10.638c0-5.857,4.771-10.628,10.627-10.628c0.533,0,0.97,0.437,0.97,0.97v9.028l8.252,3.646
		C51.626,28.412,51.85,28.984,51.626,29.469z M54.817,27.471c-0.165,0.358-0.514,0.572-0.892,0.572
		c-0.126,0-0.262-0.019-0.388-0.078l-8.834-3.908c-0.349-0.155-0.572-0.495-0.572-0.882v-9.658c0-0.543,0.437-0.97,0.97-0.97
		c5.857,0,10.628,4.761,10.628,10.628C55.729,24.678,55.418,26.123,54.817,27.471z"></path><path fill="#2B2F64" d="M51.132,28.188l-8.252-3.646v-9.028c0-0.533-0.437-0.97-0.97-0.97c-5.857,0-10.627,4.771-10.627,10.628
		c0,5.867,4.771,10.638,10.627,10.638c4.218,0,8.029-2.492,9.716-6.342C51.85,28.984,51.626,28.412,51.132,28.188z M41.91,33.871
		c-4.79,0-8.688-3.898-8.688-8.698c0-4.46,3.384-8.146,7.719-8.63v8.63c0,0.388,0.233,0.737,0.582,0.892l7.893,3.491
		C47.884,32.203,45.033,33.871,41.91,33.871z"></path><path fill="#FEDC7D" d="M49.416,29.556c-1.532,2.647-4.383,4.315-7.505,4.315c-4.79,0-8.688-3.898-8.688-8.698
		c0-4.46,3.384-8.146,7.719-8.63v8.63c0,0.388,0.233,0.737,0.582,0.892L49.416,29.556z"></path><path fill="#2B2F64" d="M45.101,12.547c-0.533,0-0.97,0.427-0.97,0.97v9.658c0,0.388,0.223,0.727,0.572,0.882l8.834,3.908
		c0.126,0.059,0.262,0.078,0.388,0.078c0.378,0,0.727-0.213,0.892-0.572c0.601-1.348,0.912-2.793,0.912-4.296
		C55.729,17.309,50.958,12.547,45.101,12.547z M53.392,25.774l-7.321-3.229v-8.01c4.334,0.485,7.719,4.18,7.719,8.64
		C53.789,24.067,53.653,24.94,53.392,25.774z"></path><path fill="#54BFA0" d="M53.789,23.175c0,0.892-0.136,1.765-0.397,2.599l-7.321-3.229v-8.01
		C50.405,15.02,53.789,18.715,53.789,23.175z"></path><path fill="#2B2F64" d="M11.171,11.937c-1.59,0-2.89,1.299-2.89,2.899c0,1.59,1.299,2.89,2.89,2.89c1.6,0,2.899-1.299,2.899-2.89
		C14.07,13.236,12.771,11.937,11.171,11.937z M11.171,15.786c-0.523,0-0.95-0.427-0.95-0.95c0-0.533,0.427-0.96,0.95-0.96
		c0.533,0,0.96,0.427,0.96,0.96C12.131,15.359,11.704,15.786,11.171,15.786z"></path><path fill="#E3B448" d="M12.131,14.836c0,0.523-0.427,0.95-0.96,0.95c-0.523,0-0.95-0.427-0.95-0.95c0-0.533,0.427-0.96,0.95-0.96
		C11.704,13.876,12.131,14.303,12.131,14.836z"></path><path fill="#2B2F64" d="M28.47 14.836c0 .533-.437.97-.97.97H17.435c-.533 0-.97-.437-.97-.97 0-.543.437-.97.97-.97H27.5C28.034 13.866 28.47 14.293 28.47 14.836zM11.171 21.275c-1.59 0-2.89 1.309-2.89 2.899 0 1.6 1.299 2.899 2.89 2.899 1.6 0 2.899-1.299 2.899-2.899C14.07 22.583 12.771 21.275 11.171 21.275zM11.171 25.134c-.523 0-.95-.426-.95-.959 0-.524.427-.96.95-.96.533 0 .96.436.96.96C12.131 24.708 11.704 25.134 11.171 25.134z"></path><path fill="#E3B448" d="M12.131,24.174c0,0.533-0.427,0.959-0.96,0.959c-0.523,0-0.95-0.426-0.95-0.959
		c0-0.524,0.427-0.96,0.95-0.96C11.704,23.214,12.131,23.65,12.131,24.174z"></path><path fill="#2B2F64" d="M28.47 24.174c0 .533-.437.969-.97.969H17.435c-.533 0-.97-.436-.97-.969 0-.534.437-.97.97-.97H27.5C28.034 23.205 28.47 23.641 28.47 24.174zM11.171 30.623c-1.59 0-2.89 1.299-2.89 2.9s1.299 2.899 2.89 2.899c1.6 0 2.899-1.299 2.899-2.899S12.771 30.623 11.171 30.623zM11.171 34.482c-.523 0-.95-.437-.95-.96 0-.534.427-.96.95-.96.533 0 .96.427.96.96C12.131 34.046 11.704 34.482 11.171 34.482z"></path><path fill="#E3B448" d="M12.131,33.522c0,0.523-0.427,0.96-0.96,0.96c-0.523,0-0.95-0.437-0.95-0.96c0-0.534,0.427-0.96,0.95-0.96
		C11.704,32.562,12.131,32.989,12.131,33.522z"></path><path fill="#2B2F64" d="M28.47,33.522c0,0.533-0.437,0.97-0.97,0.97H17.435c-0.533,0-0.97-0.437-0.97-0.97
		c0-0.534,0.437-0.97,0.97-0.97H27.5C28.034,32.552,28.47,32.989,28.47,33.522z"></path></svg>